<svg xmlns="http://www.w3.org/2000/svg" viewBox="0 0 512 512">
  <defs>
    <linearGradient id="fondo" x1="52" y1="32" x2="450" y2="480" gradientUnits="userSpaceOnUse">
      <stop stop-color="#243245"/>
      <stop offset="1" stop-color="#111821"/>
    </linearGradient>
    <linearGradient id="turbo" x1="132" y1="154" x2="385" y2="377" gradientUnits="userSpaceOnUse">
      <stop stop-color="#61c7ff"/>
      <stop offset=".55" stop-color="#3b9ee8"/>
      <stop offset="1" stop-color="#52c788"/>
    </linearGradient>
    <filter id="sombra" x="-30%" y="-30%" width="160%" height="160%">
      <feDropShadow dx="0" dy="12" stdDeviation="16" flood-color="#000" flood-opacity=".35"/>
    </filter>
  </defs>
  <rect x="30" y="30" width="452" height="452" rx="104" fill="url(#fondo)" filter="url(#sombra)"/>
  <rect x="43" y="43" width="426" height="426" rx="92" fill="none" stroke="#41526a" stroke-width="6"/>
  <path d="M111 321a164 164 0 0 1 290 0" fill="none" stroke="#344257" stroke-width="44" stroke-linecap="round"/>
  <path d="M111 321a164 164 0 0 1 290 0" fill="none" stroke="url(#turbo)" stroke-width="28" stroke-linecap="round"/>
  <path d="M145 285l-22-13M180 228l-17-21M256 204v-29M332 228l17-21M367 285l22-13" stroke="#dce8f3" stroke-width="9" stroke-linecap="round" opacity=".9"/>
  <circle cx="256" cy="322" r="42" fill="#18222e" stroke="#65c7ff" stroke-width="10"/>
  <path d="M256 322l91-76" fill="none" stroke="#ff7a63" stroke-width="18" stroke-linecap="round"/>
  <circle cx="256" cy="322" r="15" fill="#f4f7fa"/>
  <path d="M205 374h102" stroke="#4b5f78" stroke-width="14" stroke-linecap="round"/>
  <path d="M231 402h50" stroke="#52c788" stroke-width="13" stroke-linecap="round"/>
</svg>
